<?xml version="1.0"?>
<svg version="1.1" xmlns="http://www.w3.org/2000/svg" width="400px" height="200px" style=""><path fill="#" d="M7,90.2587890625q0-0.341796875,0.47607421875-0.52490234375t0.62255859375-0.18310546875l0.9033203125-0.146484375q0.9033203125-0.146484375,1.8310546875-0.25634765625t1.806640625-0.20751953125q3.1005859375-0.390625,6.201171875-0.76904296875t6.25-0.37841796875q0.244140625,0,0.67138671875,0.0244140625t0.8544921875,0.13427734375t0.732421875,0.30517578125t0.30517578125,0.537109375q0,0.244140625-0.23193359375,0.42724609375t-0.54931640625,0.28076171875t-0.64697265625,0.1220703125t-0.52490234375,0.0244140625l-0.42724609375,0t-0.42724609375-0.09765625q-1.2939453125,0-2.55126953125,0.1220703125t-2.55126953125,0.2197265625q0.341796875,0.390625,0.3662109375,1.0986328125t0.048828125,1.220703125q0,8.642578125,0.1220703125,17.1875t0.2197265625,17.2607421875l0,0.048828125q-0.8056640625,0.7080078125-1.37939453125,0.9033203125t-1.15966796875,0.1953125q-0.5615234375,0-1.13525390625-0.20751953125t-1.37939453125-0.89111328125l0-0.048828125l0.1953125-19.1650390625q0-1.904296875-0.048828125-4.19921875t-0.048828125-4.65087890625t0.0732421875-4.55322265625t0.390625-3.8330078125q-1.4404296875,0.146484375-3.0517578125,0.439453125q-1.3916015625,0.244140625-2.6611328125,0.244140625l-0.439453125,0q-0.09765625,0-0.57373046875,0.0244140625t-0.9765625-0.0244140625t-0.9033203125-0.1953125t-0.40283203125-0.48828125z M31.137451171875,118.5546875l0-2.294921875q0-1.2451171875,0.06103515625-3.52783203125t0.15869140625-5.0048828125t0.2685546875-5.67626953125t0.390625-5.57861328125t0.52490234375-4.69970703125t0.69580078125-3.076171875q0.244140625-0.5615234375,0.8056640625-0.7080078125t1.0986328125-0.146484375q0.8544921875,0,1.50146484375,0.37841796875t0.64697265625,1.37939453125l-0.439453125,0.48828125q-0.8544921875,5.6396484375-1.0986328125,11.328125t-0.341796875,11.376953125q0.6103515625-0.9521484375,1.37939453125-1.86767578125t1.708984375-1.62353515625t2.0263671875-1.13525390625t2.38037109375-0.42724609375q1.66015625,0,2.74658203125,1.0009765625t1.79443359375,2.60009765625t1.0498046875,3.57666015625t0.52490234375,3.955078125t0.25634765625,3.74755859375t0.2197265625,2.94189453125q-0.4638671875,0.634765625-1.3671875,0.634765625l-0.0732421875,0q-0.390625,0-0.8544921875-0.09765625t-0.6103515625-0.48828125l0.048828125,0.048828125q-0.341796875-0.7568359375-0.4638671875-2.18505859375t-0.1953125-3.1494140625t-0.25634765625-3.52783203125t-0.54931640625-3.271484375t-1.07421875-2.4169921875t-1.904296875-1.0009765625l-0.146484375,0q-1.4404296875,0-2.4169921875,0.87890625q-1.025390625,0.927734375-1.66015625,2.44140625t-0.9765625,3.369140625t-0.52490234375,3.57666015625t-0.28076171875,3.125t-0.244140625,2.06298828125q-0.146484375,0.5615234375-0.86669921875,0.74462890625t-1.23291015625,0.18310546875q-1.1962890625,0-1.953125-0.68359375q-0.5615234375-1.3427734375-0.6591796875-3.3447265625t-0.09765625-3.90625z M54.49365234375,116.89453125q0-1.708984375,0.37841796875-4.0283203125t1.28173828125-4.39453125t2.38037109375-3.52783203125t3.72314453125-1.45263671875q2.099609375,0,3.1494140625,1.20849609375t1.0498046875,3.25927734375q0,1.3427734375-0.50048828125,2.94189453125t-1.42822265625,3.02734375t-2.197265625,2.38037109375t-2.83203125,0.9521484375l-0.634765625-0.048828125q0,0.6591796875,0.1953125,1.77001953125t0.57373046875,2.20947265625t0.9765625,1.9287109375t1.45263671875,0.830078125q1.2451171875,0,2.392578125-1.0009765625t2.1728515625-2.2216796875t1.904296875-2.2216796875t1.611328125-1.0009765625q0.390625,0,0.8056640625,0.1220703125t0.4638671875,0.68359375q0,0.341796875-0.18310546875,0.5615234375t-0.32958984375,0.48828125q-0.7568359375,1.2939453125-1.64794921875,2.4658203125t-2.01416015625,2.1240234375t-2.45361328125,1.50146484375t-2.94189453125,0.54931640625q-2.099609375,0-3.4912109375-0.74462890625t-2.24609375-2.001953125t-1.23291015625-2.9052734375t-0.37841796875-3.45458984375z M58.86376953125,115.0390625l0.68359375,0.6103515625q0.48828125,0.439453125,0.9765625,0.1953125t0.87890625-0.89111328125t0.72021484375-1.59912109375t0.5859375-1.953125t0.37841796875-1.953125t0.1220703125-1.5869140625l0-0.830078125t-0.0732421875-0.87890625t-0.25634765625-0.69580078125t-0.57373046875-0.35400390625q-0.1220703125-0.0244140625-0.2197265625-0.0244140625q-0.830078125,0-1.416015625,1.0498046875q-0.634765625,1.171875-1.025390625,2.84423828125t-0.5615234375,3.43017578125t-0.2197265625,2.63671875z M160.5166015625,94.04296875q0-1.1474609375,0.06103515625-2.2705078125t0.20751953125-2.2216796875q0.09765625-0.5615234375,0.86669921875-0.8056640625t1.28173828125-0.244140625l0.5859375,0.048828125q0.7080078125,0.09765625,1.42822265625-0.09765625t1.42822265625-0.1953125q1.66015625,0,3.7109375,0.3662109375t3.84521484375,1.2451171875t3.01513671875,2.30712890625t1.220703125,3.52783203125t-1.26953125,3.91845703125t-3.1982421875,3.1982421875t-4.150390625,2.16064453125t-4.0771484375,0.78125q0.1953125,4.7119140625,0.54931640625,9.3505859375t1.20849609375,9.27734375l0.048828125,0.3173828125q0,0.341796875-0.30517578125,0.5615234375t-0.72021484375,0.35400390625t-0.84228515625,0.18310546875t-0.69580078125,0.048828125q-0.6103515625,0-1.47705078125-0.23193359375t-1.06201171875-0.91552734375q-0.5615234375-2.1484375-0.87890625-4.72412109375t-0.4638671875-5.38330078125t-0.20751953125-5.65185546875t-0.06103515625-5.55419921875l0-5.4931640625q0-0.9033203125-0.0244140625-1.8798828125t-0.0244140625-1.9775390625z M165.130859375,90.087890625q0,3.3447265625,0.0732421875,6.67724609375t0.1708984375,6.67724609375q1.4404296875-0.29296875,2.94189453125-1.03759765625t2.7099609375-1.77001953125t1.953125-2.33154296875t0.74462890625-2.74658203125q0-1.2939453125-0.64697265625-2.3193359375t-1.67236328125-1.7578125q-1.0009765625-0.7080078125-2.2705078125-1.0986328125q-1.123046875-0.341796875-2.197265625-0.341796875l-0.2685546875,0z M182.67651367188,116.357421875q0-1.3916015625,0.35400390625-2.86865234375t1.123046875-2.6611328125t1.94091796875-1.9287109375t2.83203125-0.74462890625q1.2451171875,0,2.62451171875,0.42724609375t2.52685546875,1.220703125t1.86767578125,1.94091796875t0.72021484375,2.5634765625q0,1.708984375-0.62255859375,3.2470703125t-1.74560546875,2.74658203125t-2.62451171875,1.904296875t-3.25927734375,0.69580078125q-1.4404296875,0-2.5146484375-0.52490234375t-1.79443359375-1.40380859375t-1.07421875-2.0751953125t-0.35400390625-2.5390625z M186.26538085938,116.30859375q0,0.439453125,0.13427734375,1.2939453125t0.40283203125,1.67236328125t0.69580078125,1.416015625t1.03759765625,0.54931640625q1.2939453125-0.146484375,2.13623046875-0.84228515625t1.3671875-1.69677734375t0.732421875-2.1728515625t0.20751953125-2.2216796875q0-1.3427734375-0.52490234375-2.24609375t-1.72119140625-1.46484375q0,0.048828125,0.048828125,0.048828125t0.048828125-0.048828125l-0.6103515625-0.146484375q-0.244140625-0.09765625-0.59814453125-0.2197265625t-0.69580078125-0.537109375q-0.9521484375,0.341796875-1.47705078125,0.87890625t-0.79345703125,1.30615234375t-0.32958984375,1.84326171875t-0.06103515625,2.587890625z M200.17333984375,100.390625q0-0.341796875,0.732421875-0.5859375t1.66015625-0.40283203125t1.79443359375-0.23193359375t1.18408203125-0.1220703125q0-0.6591796875,0.048828125-1.33056640625t0.2685546875-1.1962890625t0.69580078125-0.84228515625t1.33056640625-0.3173828125q0.7080078125,0,1.07421875,0.1708984375t0.78125,0.7080078125q0.09765625,0.29296875,0.09765625,0.5615234375l0,0.81787109375t-0.048828125,0.84228515625q0.9033203125-0.09765625,1.79443359375-0.23193359375t1.79443359375-0.13427734375q0.6591796875,0,0.9033203125,0.0244140625t0.48828125,0.5859375q0.1953125,0.5615234375-0.47607421875,0.8544921875t-1.611328125,0.439453125t-1.86767578125,0.2197265625t-1.123046875,0.0732421875q-0.29296875,4.19921875-0.59814453125,8.3251953125t-0.30517578125,8.3740234375q0,1.904296875,0.1220703125,3.9306640625t0.68359375,3.8330078125q0.146484375,0.5615234375,0.48828125,1.0498046875t0.341796875,1.0498046875q0,0.341796875-0.2685546875,0.537109375t-0.64697265625,0.32958984375t-0.7568359375,0.15869140625t-0.62255859375,0.0244140625q-1.5380859375,0-2.34375-1.1474609375t-1.15966796875-2.74658203125t-0.37841796875-3.28369140625t-0.0244140625-2.734375q0-2.1484375,0.08544921875-4.39453125t0.20751953125-4.443359375t0.341796875-4.296875t0.5126953125-3.90625q-0.8544921875,0.09765625-1.67236328125,0.2197265625t-1.67236328125,0.1220703125q-0.1953125,0-0.52490234375-0.0244140625t-0.62255859375-0.1220703125t-0.50048828125-0.2685546875t-0.20751953125-0.48828125z"/><path fill="#4731d6" d="M86.787109375,129.58984375q0.1171875-6.123046875,0.5126953125-12.216796875t0.6884765625-12.216796875q0.05859375-2.34375,0.05859375-4.2626953125t0.1904296875-3.3251953125t0.703125-2.1533203125t1.7138671875-0.7470703125q1.025390625,0,1.552734375,0.29296875t0.8056640625,0.7470703125t0.3369140625,1.025390625t0.05859375,1.1572265625q0,0.849609375,0.05859375,1.6845703125t0.05859375,1.6845703125q0,6.181640625-0.3369140625,12.333984375t-0.3369140625,12.392578125q0,0.908203125,0.029296875,1.8310546875t0.029296875,1.8896484375q0,0.3515625-0.322265625,0.5859375t-0.8056640625,0.3955078125t-1.025390625,0.2197265625t-0.8935546875,0.05859375q-0.41015625,0-0.9228515625-0.05859375t-0.99609375-0.2490234375t-0.8203125-0.4541015625t-0.3369140625-0.615234375z M88.427734375,89.86328125q0-0.29296875,0.087890625-0.6591796875t0.205078125-0.6591796875q0.05859375-0.3515625,0.17578125-1.201171875t0.4248046875-1.6552734375t0.849609375-1.435546875t1.5380859375-0.6298828125l0.556640625,0q0.46875,0.1171875,0.9521484375,0.29296875t0.4833984375,0.849609375q0,0.29296875-0.029296875,0.556640625t-0.087890625,0.5859375q-0.234375,1.728515625-0.4541015625,2.724609375t-0.5126953125,1.5087890625t-0.7470703125,0.6591796875t-1.1572265625,0.205078125q-0.234375,0-0.6298828125-0.029296875t-0.76171875-0.146484375t-0.6298828125-0.3662109375t-0.263671875-0.6005859375z M99.72666015625,119.21875l0-0.849609375q0-1.0546875,0.05859375-1.9921875q0.05859375-1.318359375,0.05859375-2.16796875q0-0.46875,0.05859375-1.0693359375t0.29296875-0.9521484375q0.29296875-0.29296875,0.6884765625-0.6005859375t0.8642578125-0.3076171875q1.494140625,0,2.34375,0.3369140625t0.908203125,1.3916015625l0.1171875,0.908203125q0.52734375-1.259765625,1.40625-3.1201171875t2.0361328125-3.544921875t2.607421875-2.87109375t3.0615234375-1.1865234375q1.494140625,0,2.4609375,1.40625t1.5380859375,3.5888671875t0.8056640625,4.86328125t0.322265625,5.2587890625t0.1171875,4.7021484375t0.205078125,3.2080078125q0.1171875,0.908203125,0.3955078125,1.9189453125t0.2783203125,1.8603515625q0,0.234375-0.3369140625,0.4541015625t-0.7177734375,0.3662109375t-0.7763671875,0.234375t-0.5712890625,0.087890625q-1.142578125,0-1.6259765625-1.7138671875t-0.6005859375-4.2919921875t-0.1171875-5.5810546875t-0.205078125-5.5810546875t-0.8349609375-4.2919921875t-2.0068359375-1.7724609375q-1.259765625,0-2.607421875,1.6259765625t-2.314453125,4.3212890625q-0.9375,2.6953125-1.2890625,6.123046875q-0.1171875,1.083984375-0.1171875,2.16796875q0,2.373046875,0.498046875,4.74609375q0.05859375,0.41015625-0.3369140625,0.615234375t-0.9814453125,0.322265625t-1.1865234375,0.146484375t-0.9228515625,0.029296875q-1.142578125,0-1.8310546875-0.8056640625t-1.0693359375-2.0654296875t-0.5126953125-2.8271484375t-0.1611328125-3.0908203125z M126.3478515625,130.966796875l0.615234375-0.732421875q-0.1171875-4.921875-0.263671875-9.814453125t-0.146484375-9.7265625q0-6.005859375,0.7177734375-11.6162109375t1.4208984375-11.4990234375q0.05859375-0.3515625,0.3369140625-0.5712890625t0.6884765625-0.3662109375t0.8349609375-0.205078125t0.7763671875-0.05859375q0.46875,0,1.171875,0.17578125t1.40625,1.025390625q0,0.29296875,0.0439453125,0.5126953125t0.0439453125,0.5126953125q0,2.2265625-0.6005859375,4.775390625t-0.8056640625,4.892578125q-0.234375,2.87109375-0.322265625,5.68359375t-0.087890625,5.712890625l0.05859375,2.578125q0.5859375-0.732421875,1.669921875-1.875t2.34375-2.2119140625t2.51953125-1.8310546875t2.28515625-0.76171875q1.552734375,0,2.1533203125,0.87890625t0.6005859375,2.314453125q0,1.318359375-0.5712890625,2.75390625t-1.494140625,2.7978515625t-2.0947265625,2.4462890625t-2.314453125,1.611328125q1.552734375,1.93359375,3.1787109375,3.69140625t3.5595703125,3.310546875l0,0.673828125q-0.05859375,0.29296875-0.3662109375,0.439453125t-0.673828125,0.234375t-0.7177734375,0.1318359375t-0.5859375,0.0439453125q-1.435546875,0-2.7685546875-0.849609375t-2.490234375-2.080078125t-2.1826171875-2.607421875t-1.875-2.40234375q0.17578125,3.369140625,0.3955078125,6.7236328125t0.2197265625,6.7236328125q0,0.41015625-0.3662109375,0.6884765625t-0.849609375,0.4248046875t-0.9814453125,0.205078125t-0.8203125,0.05859375q-1.728515625,0-2.4462890625-0.6298828125t-1.2158203125-2.1826171875z M132.3537109375,117.16796875q0.732421875,0,1.7431640625-0.6298828125t2.0947265625-1.5673828125t2.021484375-1.9775390625t1.5087890625-1.9775390625t0.5712890625-1.5087890625t-0.791015625-0.5126953125q-0.29296875,0-1.201171875,0.849609375t-2.021484375,2.080078125t-2.2265625,2.666015625t-1.69921875,2.578125z"/></svg>
